<?xml version="1.0" encoding="UTF-8" standalone="no"?><!DOCTYPE svg PUBLIC "-//W3C//DTD SVG 1.1//EN" "http://www.w3.org/Graphics/SVG/1.1/DTD/svg11.dtd"><svg width="100%" height="100%" viewBox="0 0 3276 3036" version="1.1" xmlns="http://www.w3.org/2000/svg" xmlns:xlink="http://www.w3.org/1999/xlink" xml:space="preserve" xmlns:serif="http://www.serif.com/" style="fill-rule:evenodd;clip-rule:evenodd;stroke-linejoin:round;stroke-miterlimit:2;"><g><path d="M1486.22,1393.72c-0,-0 203.634,-82.483 307,-231c103.365,-148.517 111,-190 111,-190c-0,-0 96.16,-243.232 152,-348c-0,-0 75.081,-126.238 98,-167c19.807,-35.229 133.389,-195.391 281,-276c-0,-0 190.09,-98.093 301,-102.353c57.418,-2.206 112.266,2.801 174.404,17.388c65.548,15.387 139.215,46.147 232.596,109.965c-0,-0 -74.749,-137.056 -256,-183c-0,-0 -265.606,-100.102 -526,111l29,-51.353l14,-40.647c-0,-0 -36.778,20.747 -73,28.647l-70,20.353l-150,5l28,48c-0,-0 -151.017,-53.212 -253,-33c-0,-0 -180.24,31.382 -229,223c-0,-0 -85.113,198.455 15.204,340l43.796,36l-78.717,-3c0,-0 57.241,70.965 65.717,114c11.619,59 23.166,162.667 4,240c-19.167,77.333 -82.167,168.667 -119,224c-27.439,41.22 -102,108 -102,108Zm255,-1030c3.075,18.714 -19.012,193.211 102,191c71.962,-1.315 122.321,-56.439 151,-113c-0,-0 76.303,-128.095 -13,-218c-0,-0 -73.863,-53.684 -161,11c-0,-0 83.065,7.363 63,91c-0,-0 119.158,-6.277 63,118c-0,-0 -56.497,54.789 -129,10c-27.722,-20.05 -53.31,-48.988 -76,-90Z" style="fill:#fff;"/><path d="M960.218,1526.72l-9,-117c-0,-0 210.906,132.862 359,127c-0,-0 293.654,10.106 520,-294c-0,-0 106.143,-133.52 176,-285.795c-0,-0 125.83,-789.074 782,-808.205c-0,-0 737.45,37.357 397,945c-0,-0 -169.354,395.091 -497,472c-0,-0 53.327,24.267 156,-30l80,-34c-0,-0 -199.444,381.686 -21,697c-0,-0 93.26,130.112 273,159c-0,-0 -933.243,1109.01 -2335,490c-0,-0 453.929,-197.969 171,-800l191,57l16,-4l-194,-98c-0,-0 -236.145,-111.526 -326,-213c-0,-0 -229.6,-178.783 -225,-544c-0,-0 -7.456,-110.354 -3,-175c-0,-0 -2.733,-162.193 -87,-159c-0,-0 -57.748,-13.541 -90,45.205c-0,-0 23.352,115.262 -121,106.795c-0,-0 -132.039,-0.84 -128,-130c-0,-0 4.917,-166.82 188,-124c-0,-0 36.795,-1.291 60,-52c-0,-0 29.953,-59.736 -22,-108c-0,-0 -10.261,-14.776 -53,-20c-0,-0 -189.629,37.995 -218,-104c-0,-0 -11.988,-190.015 142,-180c-0,-0 141.015,1.095 150,138c-0,-0 50.078,60.026 109,15c-0,-0 58.927,-40.923 8,-112c-0,-0 -67.76,-42.58 -82,-87c-0,-0 -45.911,-112.237 30,-184c-0,-0 177.909,-141.932 272,82c-0,-0 11.443,64.875 -24,116c-0,-0 -18.9,61.158 2,88c-0,-0 16.01,55.461 91,40c-0,-0 51.434,-24.66 54,-88c-0,-0 25.051,-118.115 113,-110c-0,-0 163.607,-19.326 162,153c-0,-0 16.232,97.684 -100,121l-79,-3c-0,-0 -54.444,21.134 -45,80c-0,-0 1.789,89.215 83,94c-0,-0 31.86,-30.704 93,-31c-0,-0 131.204,-21.893 143,77c-0,-0 27.023,148.035 -57,184c-0,-0 -99.545,33.499 -172,-8c-0,-0 -58.655,-31.473 -89,-81c-0,-0 -29.502,-17.387 -68,26c-0,-0 -42.209,41.415 -25,107l161,389l88,175Z" style="fill:#fff;"/></g></svg>